<?xml version="1.0" encoding="UTF-8" standalone="no"?>
<svg
   version="1.1"
   id="Layer_1"
   x="0px"
   y="0px"
   width="100%"
   viewBox="0 0 64 64"
   enable-background="new 0 0 64 64"
   xml:space="preserve"
   sodipodi:docname="flower.svg"
   inkscape:version="1.4 (86a8ad7, 2024-10-11)"
   class="petal"
   xmlns:inkscape="http://www.inkscape.org/namespaces/inkscape"
   xmlns:sodipodi="http://sodipodi.sourceforge.net/DTD/sodipodi-0.dtd"
   xmlns="http://www.w3.org/2000/svg"
   xmlns:svg="http://www.w3.org/2000/svg"><defs
   id="defs7" /><sodipodi:namedview
   id="namedview7"
   pagecolor="#ffffff"
   bordercolor="#000000"
   borderopacity="0.25"
   inkscape:showpageshadow="2"
   inkscape:pageopacity="0.0"
   inkscape:pagecheckerboard="0"
   inkscape:deskcolor="#d1d1d1"
   inkscape:zoom="16"
   inkscape:cx="17.0625"
   inkscape:cy="30.21875"
   inkscape:window-width="2400"
   inkscape:window-height="1261"
   inkscape:window-x="-9"
   inkscape:window-y="-9"
   inkscape:window-maximized="1"
   inkscape:current-layer="Layer_1" />







<path
   style="fill:#f9dbb2;fill-opacity:1;stroke-width:1.294"
   id="path15"
   sodipodi:type="arc"
   sodipodi:cx="30.107271"
   sodipodi:cy="16.220615"
   sodipodi:rx="6.275053"
   sodipodi:ry="5.6236176"
   sodipodi:start="0"
   sodipodi:end="6.2298819"
   sodipodi:open="true"
   sodipodi:arc-type="arc"
   d="m 36.382324,16.220615 a 6.275053,5.6236176 0 0 1 -6.191435,5.623119 6.275053,5.6236176 0 0 1 -6.356442,-5.473257 6.275053,5.6236176 0 0 1 6.02203,-5.768986 6.275053,5.6236176 0 0 1 6.516935,5.319508" /><path
   style="fill:#f9dbb2;fill-opacity:1;stroke-width:1.294"
   id="path14"
   sodipodi:type="arc"
   sodipodi:cx="21.195402"
   sodipodi:cy="21.409803"
   sodipodi:rx="6.275053"
   sodipodi:ry="5.6236176"
   sodipodi:start="0"
   sodipodi:end="6.2298819"
   sodipodi:open="true"
   sodipodi:arc-type="arc"
   d="m 27.470455,21.409803 a 6.275053,5.6236176 0 0 1 -6.191435,5.623119 6.275053,5.6236176 0 0 1 -6.356442,-5.473257 6.275053,5.6236176 0 0 1 6.02203,-5.768986 6.275053,5.6236176 0 0 1 6.516935,5.319508" /><path
   style="fill:#f9dbb2;fill-opacity:1;stroke-width:1.294"
   id="path13"
   sodipodi:type="arc"
   sodipodi:cx="24.203627"
   sodipodi:cy="31.90099"
   sodipodi:rx="6.275053"
   sodipodi:ry="5.6236176"
   sodipodi:start="0"
   sodipodi:end="6.2298819"
   sodipodi:open="true"
   sodipodi:arc-type="arc"
   d="m 30.47868,31.90099 a 6.275053,5.6236176 0 0 1 -6.191435,5.623118 6.275053,5.6236176 0 0 1 -6.356443,-5.473257 6.275053,5.6236176 0 0 1 6.02203,-5.768986 6.275053,5.6236176 0 0 1 6.516935,5.319508" /><path
   style="fill:#f9dbb2;fill-opacity:1;stroke-width:1.294"
   id="path12"
   sodipodi:type="arc"
   sodipodi:cx="37.853451"
   sodipodi:cy="22.199461"
   sodipodi:rx="6.275053"
   sodipodi:ry="5.6236176"
   sodipodi:start="0"
   sodipodi:end="6.2298819"
   sodipodi:open="true"
   sodipodi:arc-type="arc"
   d="m 44.128504,22.199461 a 6.275053,5.6236176 0 0 1 -6.191435,5.623118 6.275053,5.6236176 0 0 1 -6.356443,-5.473257 6.275053,5.6236176 0 0 1 6.02203,-5.768985 6.275053,5.6236176 0 0 1 6.516935,5.319508" /><path
   style="fill:#f9dbb2;fill-opacity:1;stroke-width:1.294"
   id="path11"
   sodipodi:type="arc"
   sodipodi:cx="36.161324"
   sodipodi:cy="32.239414"
   sodipodi:rx="6.275053"
   sodipodi:ry="5.6236176"
   sodipodi:start="0"
   sodipodi:end="6.2298819"
   sodipodi:open="true"
   sodipodi:arc-type="arc"
   d="m 42.436377,32.239414 a 6.275053,5.6236176 0 0 1 -6.191436,5.623119 6.275053,5.6236176 0 0 1 -6.356442,-5.473258 6.275053,5.6236176 0 0 1 6.02203,-5.768985 6.275053,5.6236176 0 0 1 6.516935,5.319508" /><ellipse
   style="fill:#f4f7b3;fill-opacity:1;stroke-width:0.964445"
   id="path7"
   cx="29.897564"
   cy="24.958881"
   rx="7.8965926"
   ry="7.4829617"
   class="center" /><ellipse
   style="fill:#000000;fill-opacity:1;stroke-width:1.04779"
   id="path16"
   cx="25.341032"
   cy="23.897326"
   rx="1.2457035"
   ry="1.3084606" /><path
   style="fill:#000000;fill-opacity:1;stroke-width:2.3;stroke-dasharray:none"
   d="m 30.923619,22.980024 0.0141,0.047"
   id="path19" /><path
   style="fill:#000000;fill-opacity:1;stroke-width:3.10935;stroke-dasharray:none"
   d="m 28.546875,24.480468 3.320312,0.01426 0.0078,0.349819 -0.222657,0.46404 -2.769532,-0.02857 -0.316406,-0.399788 z"
   id="path22"
   sodipodi:nodetypes="ccccccc" /><ellipse
   style="fill:#000000;fill-opacity:1;stroke-width:1.04779"
   id="ellipse22"
   cx="35.27853"
   cy="24.084826"
   rx="1.2457035"
   ry="1.3084606" /></svg>
